# xmcd
#
# Track frame offsets: 
#        150
#        19435
#        35555
#        54935
#        76710
#        95210
#        114280
#        135750
#        158530
#        174825
#
# Disc length: 2557 seconds
#
# Revision: 5
# Processed by: cddbd v1.5.2PL0 Copyright (c) Steve Scherf et al.
# Submitted via: ExactAudioCopy v1.0b6
#
DISCID=6909fb0a
DTITLE=PRINCESS PRINCESS - HERE WE ARE 32DH-5004
DYEAR=1988
DGENRE=JPop
TTITLE0=19 GROWING UP -ode to my buddy-
TTITLE1=WONDER CASTLE
TTITLE2=MY WILL
TTITLE3=FLAME
TTITLE4=KEEP ON LOVIN' YOU
TTITLE5=GO AWAY BOY
TTITLE6=SHE
TTITLE7=ROMANCIN' BLUE
TTITLE8=冗談じゃない
TTITLE9=恋のペンディング
EXTD=YEAR: 1988
EXTT0=
EXTT1=
EXTT2=
EXTT3=
EXTT4=
EXTT5=
EXTT6=
EXTT7=
EXTT8=
EXTT9=
PLAYORDER=
